<svg version="1.2" xmlns="http://www.w3.org/2000/svg" viewBox="0 0 512 512" width="512" height="512">
	<title>download-svg</title>
	<style>
		.s0 { fill: #ffffff } 
	</style>
	<g id="Layer">
		<path id="Layer" fill-rule="evenodd" class="s0" d="m393.7 87l-24 3.4c-6.5-9.1-2.8-15.7 4.3-15.9 5.6-0.2 13.2 3.3 19.7 12.5zm-32.1 13.5c68.1-12.2 108.6-5.2 122.4 15.6 1.7 2.6 3 5.4 3.9 8.6-21.5-5.2-38.4 7.1-38.4 7.1l4.9 15.5 10.5-0.5c-6.3-13.9 14.7-16.1 14.9-0.8l9.7-0.8c-0.9 14.8-5.4 31.7-10.4 47.3-1.7 5.2-5.9 9.3-11.2 11-21 6.3-43.6 8.5-66.6 4.6 9.8 80.3-29.2 96-29.2 96l10.5-23.2-2-11.1c-3.7 8.6-8.1 15.9-13.1 23.7-39 68.5-34.4 143.5-34.4 143.5h-25.9l-27.9-144.1c-8 21.3-6.9 37.7-3.5 52.8-20.2 6.2-47.5 11.3-78.7 8.5l37.4-11.1 4.1-7.1c-31.6 5.8-73.6 6.5-102.6-3.3-30.3 60.3-62.8 63.3-62.8 63.3l-3.2 41h-28.8l-7.8-63c0 0 47-29-4.1-98.9 0 0 89.4-155.7 268.3-103.3 3.5-1.4 6.5-2.9 9.2-4.5l-32.1-9.8c30.4 2.6 51.3-27.3 60.2-43.2-15.5-11.2-15-22.9-7.9-28 2.4-1.7 5.5-2.7 9-2.7 7.8-0.1 17.6 4.7 25.6 16.9zm-5.9 26.5h15.5c1.6 4.8 7.5 8.4 14.5 8.4 7 0 12.9-3.6 14.5-8.4h15.9c-8.3-5.3-17.8-8.2-30.2-9.6-14.9-0.1-26 6.6-30.2 9.6zm29.3 309.7h-22.2c-12.2-32.1-15.2-66.2-1.8-103.9 0 0 19.3-3.5 34.5-33.8-13.7 59.3-14.3 93-10.5 137.7zm-207.5-81.8l20.1 81.8h-29.9l-13.9-35.6-27.2-25.1 17.8-26.7z"/>
	</g>
</svg>