<?xml version="1.0" standalone="no"?>
<!DOCTYPE svg PUBLIC "-//W3C//DTD SVG 20010904//EN"
 "http://www.w3.org/TR/2001/REC-SVG-20010904/DTD/svg10.dtd">
<svg version="1.0" xmlns="http://www.w3.org/2000/svg"
 width="1920.000000pt" height="1920.000000pt" viewBox="0 0 1920.000000 1920.000000"
 preserveAspectRatio="xMidYMid meet">

<g transform="translate(0.000000,1920.000000) scale(0.100000,-0.100000)"
fill="#000000" stroke="none">
<path d="M9135 14564 c-257 -19 -350 -28 -475 -45 -302 -42 -608 -114 -904
-213 -960 -321 -1792 -909 -2412 -1702 -111 -142 -332 -475 -421 -634 -359
-641 -580 -1352 -642 -2070 -6 -63 -13 -158 -16 -210 l-7 -95 -86 -75 c-129
-112 -509 -487 -638 -630 -869 -962 -1231 -1866 -1044 -2607 184 -729 880
-1215 1993 -1392 342 -55 693 -76 1132 -68 426 8 747 34 1170 93 l179 25 186
-90 c890 -433 1887 -597 2858 -471 1006 132 1942 552 2717 1219 138 119 381
363 504 506 392 455 711 993 916 1545 54 145 135 394 135 414 0 8 57 61 128
117 1001 804 1683 1600 2007 2344 189 433 255 849 190 1210 -20 114 -82 299
-133 402 -93 183 -255 382 -428 524 -389 318 -969 523 -1709 604 -361 40 -962
44 -1373 11 l-183 -15 -87 74 c-308 264 -672 505 -1049 694 -565 282 -1198
461 -1843 521 -120 11 -578 21 -665 14z m525 -474 c288 -20 547 -61 827 -131
676 -168 1314 -493 1863 -948 136 -112 445 -418 551 -546 404 -484 693 -1005
882 -1590 30 -93 65 -210 77 -258 l23 -88 -29 -30 c-16 -17 -85 -81 -154 -143
-952 -855 -2506 -1748 -4255 -2446 -1459 -582 -2826 -931 -3891 -993 l-71 -4
-60 96 c-608 978 -830 2177 -612 3311 307 1596 1408 2909 2917 3479 622 235
1291 335 1932 291z m4568 -1284 c782 -82 1327 -288 1644 -624 463 -491 374
-1240 -251 -2110 -644 -896 -1806 -1858 -3236 -2679 -1098 -630 -2358 -1174
-3550 -1533 -1002 -302 -1896 -476 -2825 -552 -211 -17 -933 -17 -1115 0 -794
75 -1333 268 -1660 596 -154 154 -240 301 -293 495 -23 87 -26 114 -26 281 0
155 4 202 22 290 119 552 503 1161 1146 1817 104 107 191 192 193 190 2 -2 10
-60 18 -128 9 -68 23 -166 31 -217 l16 -92 -69 -78 c-164 -183 -318 -398 -399
-557 -119 -231 -170 -458 -144 -644 40 -292 226 -517 541 -653 264 -113 571
-162 1024 -162 450 1 880 48 1450 160 2336 458 5218 1755 6931 3119 1137 906
1564 1697 1210 2245 -195 301 -621 474 -1223 497 l-173 6 -68 91 c-38 50 -99
127 -137 171 l-68 80 34 7 c65 13 816 1 977 -16z m-250 -846 c225 -41 379
-105 472 -199 66 -65 90 -123 90 -216 0 -143 -84 -338 -232 -540 l-51 -69 -62
180 c-87 252 -152 407 -275 652 -125 246 -131 226 58 192z m-9463 -4102 c71
-216 179 -474 291 -698 62 -124 111 -227 108 -229 -7 -8 -179 20 -278 45 -421
105 -533 304 -371 659 44 96 193 335 210 335 2 0 20 -51 40 -112z m9094 -285
c-23 -60 -162 -335 -224 -442 -306 -531 -730 -1011 -1223 -1384 -562 -426
-1260 -733 -1960 -862 -269 -50 -441 -67 -747 -72 -441 -8 -783 29 -1184 128
-172 42 -481 138 -481 149 0 4 26 12 58 19 153 33 607 149 810 207 1661 474
3352 1238 4742 2143 118 77 216 140 217 141 1 0 -2 -12 -8 -27z"/>
</g>
</svg>
